<svg xmlns="http://www.w3.org/2000/svg" width="1600" height="1000" viewBox="0 0 1600 1000">
  <defs><linearGradient id="bg" x1="0" y1="0" x2="1" y2="1"><stop stop-color="#07111f"/><stop offset="1" stop-color="#111b35"/></linearGradient><linearGradient id="brand" x1="0" y1="0" x2="1" y2="1"><stop stop-color="#6d5dfc"/><stop offset="1" stop-color="#36c9f6"/></linearGradient><filter id="s"><feDropShadow dx="0" dy="10" stdDeviation="16" flood-color="#020617" flood-opacity=".34"/></filter></defs>
  <rect width="1600" height="1000" fill="url(#bg)"/>
  <rect width="1600" height="86" fill="#081322"/><rect x="54" y="20" width="44" height="44" rx="13" fill="url(#brand)"/><path d="M69 54l7-21 8 21-8-5z" fill="white"/>
  <text x="112" y="53" fill="#f8fafc" font-family="Inter,Arial" font-size="25" font-weight="700">CareerForge</text><text x="356" y="53" fill="#8192aa" font-family="Inter,Arial" font-size="15">Command Center</text><text x="502" y="53" fill="#8192aa" font-family="Inter,Arial" font-size="15">Practice</text><text x="594" y="53" fill="#8192aa" font-family="Inter,Arial" font-size="15">Mock Interviews</text><text x="746" y="53" fill="#f8fafc" font-family="Inter,Arial" font-size="15" font-weight="700">Applications</text><circle cx="1490" cy="42" r="24" fill="#6d5dfc"/><text x="1479" y="49" fill="white" font-family="Arial" font-size="16" font-weight="700">AD</text>

  <text x="62" y="145" fill="#f8fafc" font-family="Inter,Arial" font-size="30" font-weight="700">Application pipeline</text><text x="62" y="176" fill="#8fa1b8" font-family="Inter,Arial" font-size="15">Track every conversation, interview and offer in one auditable workspace.</text>
  <rect x="1236" y="126" width="148" height="48" rx="14" fill="#17263d" stroke="#2a4162"/><text x="1265" y="156" fill="#dbe6f2" font-family="Inter,Arial" font-size="14" font-weight="700">Sync calendar</text><rect x="1396" y="126" width="142" height="48" rx="14" fill="#6d5dfc"/><text x="1428" y="156" fill="white" font-family="Inter,Arial" font-size="14" font-weight="700">Add application</text>

  <rect x="62" y="210" width="1476" height="104" rx="22" fill="#0e1b2e" stroke="#223653"/>
  <text x="92" y="241" fill="#7f92aa" font-family="Inter,Arial" font-size="12">ACTIVE APPLICATIONS</text><text x="92" y="281" fill="#f8fafc" font-family="Inter,Arial" font-size="29" font-weight="700">11</text>
  <line x1="252" y1="232" x2="252" y2="292" stroke="#223653"/><text x="282" y="241" fill="#7f92aa" font-family="Inter,Arial" font-size="12">INTERVIEWS THIS WEEK</text><text x="282" y="281" fill="#f8fafc" font-family="Inter,Arial" font-size="29" font-weight="700">3</text>
  <line x1="520" y1="232" x2="520" y2="292" stroke="#223653"/><text x="550" y="241" fill="#7f92aa" font-family="Inter,Arial" font-size="12">RESPONSE RATE</text><text x="550" y="281" fill="#f8fafc" font-family="Inter,Arial" font-size="29" font-weight="700">41%</text><text x="624" y="281" fill="#42d6bb" font-family="Inter,Arial" font-size="13">+8%</text>
  <line x1="754" y1="232" x2="754" y2="292" stroke="#223653"/><text x="784" y="241" fill="#7f92aa" font-family="Inter,Arial" font-size="12">PIPELINE VALUE</text><text x="784" y="281" fill="#f8fafc" font-family="Inter,Arial" font-size="29" font-weight="700">₹1.12 Cr</text>
  <line x1="1034" y1="232" x2="1034" y2="292" stroke="#223653"/><text x="1064" y="241" fill="#7f92aa" font-family="Inter,Arial" font-size="12">NEXT EVENT</text><text x="1064" y="274" fill="#f8fafc" font-family="Inter,Arial" font-size="17" font-weight="700">System design · 3:00 PM</text><text x="1064" y="294" fill="#8193aa" font-family="Inter,Arial" font-size="12">Tomorrow · Bengaluru role</text>

  <rect x="62" y="344" width="254" height="48" rx="14" fill="#0e1b2e" stroke="#2a3d5c"/><circle cx="90" cy="368" r="8" fill="none" stroke="#8194ad" stroke-width="2"/><line x1="96" y1="374" x2="104" y2="382" stroke="#8194ad" stroke-width="2"/><text x="118" y="374" fill="#8194ad" font-family="Inter,Arial" font-size="13">Search company or role</text>
  <rect x="330" y="344" width="118" height="48" rx="14" fill="#0e1b2e" stroke="#2a3d5c"/><text x="355" y="374" fill="#cbd7e5" font-family="Inter,Arial" font-size="13">All locations</text><path d="M421 363l6 7 6-7" fill="none" stroke="#8194ad"/>
  <rect x="462" y="344" width="116" height="48" rx="14" fill="#0e1b2e" stroke="#2a3d5c"/><text x="487" y="374" fill="#cbd7e5" font-family="Inter,Arial" font-size="13">All priorities</text><path d="M551 363l6 7 6-7" fill="none" stroke="#8194ad"/>
  <text x="1406" y="374" fill="#8194ad" font-family="Inter,Arial" font-size="13">Board</text><rect x="1470" y="350" width="68" height="36" rx="10" fill="#252452"/><rect x="1486" y="360" width="8" height="16" rx="2" fill="#aea7ff"/><rect x="1499" y="360" width="8" height="16" rx="2" fill="#aea7ff"/><rect x="1512" y="360" width="8" height="16" rx="2" fill="#aea7ff"/>

  <g font-family="Inter,Arial">
    <rect x="62" y="420" width="344" height="516" rx="22" fill="#0d192b" stroke="#223653"/><circle cx="92" cy="456" r="6" fill="#63d9ff"/><text x="110" y="462" fill="#dbe6f2" font-size="15" font-weight="700">Applied</text><text x="365" y="462" fill="#8092aa" font-size="13">4</text>
    <rect x="82" y="490" width="304" height="156" rx="18" fill="#14243b" stroke="#2a4263" filter="url(#s)"/><circle cx="114" cy="525" r="20" fill="#23508d"/><text x="104" y="531" fill="white" font-size="14" font-weight="700">PP</text><text x="148" y="519" fill="#f8fafc" font-size="15" font-weight="700">PayPal</text><text x="148" y="541" fill="#889bb3" font-size="12">Lead Backend Engineer</text><rect x="104" y="569" width="82" height="25" rx="12" fill="#292552"/><text x="119" y="586" fill="#b6afff" font-size="11">High priority</text><text x="104" y="624" fill="#8194ad" font-size="11">Applied 2 days ago</text><circle cx="350" cy="614" r="5" fill="#42d6bb"/>
    <rect x="82" y="664" width="304" height="132" rx="18" fill="#14243b" stroke="#2a4263"/><circle cx="114" cy="700" r="20" fill="#5a324f"/><text x="103" y="706" fill="white" font-size="14" font-weight="700">AP</text><text x="148" y="694" fill="#f8fafc" font-size="15" font-weight="700">Atlassian</text><text x="148" y="716" fill="#889bb3" font-size="12">Senior Platform Engineer</text><text x="104" y="766" fill="#8194ad" font-size="11">Applied 5 days ago</text>

    <rect x="428" y="420" width="344" height="516" rx="22" fill="#0d192b" stroke="#223653"/><circle cx="458" cy="456" r="6" fill="#a89cff"/><text x="476" y="462" fill="#dbe6f2" font-size="15" font-weight="700">Recruiter screen</text><text x="731" y="462" fill="#8092aa" font-size="13">2</text>
    <rect x="448" y="490" width="304" height="180" rx="18" fill="#14243b" stroke="#574b9d" filter="url(#s)"/><circle cx="480" cy="525" r="20" fill="#613c91"/><text x="469" y="531" fill="white" font-size="14" font-weight="700">SA</text><text x="514" y="519" fill="#f8fafc" font-size="15" font-weight="700">SAP Labs</text><text x="514" y="541" fill="#889bb3" font-size="12">AI Engineer · Bengaluru</text><rect x="470" y="571" width="118" height="25" rx="12" fill="#173a42"/><text x="485" y="588" fill="#5de0c7" font-size="11">Recruiter replied</text><text x="470" y="624" fill="#dbe6f2" font-size="12">Availability requested</text><text x="470" y="648" fill="#ffbf70" font-size="11">Follow up by tomorrow</text>
    <rect x="448" y="688" width="304" height="132" rx="18" fill="#14243b" stroke="#2a4263"/><circle cx="480" cy="724" r="20" fill="#245c50"/><text x="469" y="730" fill="white" font-size="14" font-weight="700">RA</text><text x="514" y="718" fill="#f8fafc" font-size="15" font-weight="700">Razorpay</text><text x="514" y="740" fill="#889bb3" font-size="12">Lead Software Engineer</text><text x="470" y="790" fill="#8194ad" font-size="11">Last contact yesterday</text>

    <rect x="794" y="420" width="344" height="516" rx="22" fill="#0d192b" stroke="#223653"/><circle cx="824" cy="456" r="6" fill="#ffb860"/><text x="842" y="462" fill="#dbe6f2" font-size="15" font-weight="700">Interviewing</text><text x="1097" y="462" fill="#8092aa" font-size="13">3</text>
    <rect x="814" y="490" width="304" height="194" rx="18" fill="#14243b" stroke="#9a693d" filter="url(#s)"/><circle cx="846" cy="525" r="20" fill="#4e5d81"/><text x="835" y="531" fill="white" font-size="14" font-weight="700">MS</text><text x="880" y="519" fill="#f8fafc" font-size="15" font-weight="700">Microsoft</text><text x="880" y="541" fill="#889bb3" font-size="12">Senior AI Platform Engineer</text><rect x="836" y="572" width="142" height="25" rx="12" fill="#3b2d21"/><text x="851" y="589" fill="#ffc475" font-size="11">System design next</text><text x="836" y="626" fill="#dbe6f2" font-size="12">Tomorrow · 3:00–4:00 PM</text><text x="836" y="655" fill="#63d9ff" font-size="11">Open preparation plan →</text>
    <rect x="814" y="702" width="304" height="132" rx="18" fill="#14243b" stroke="#2a4263"/><circle cx="846" cy="738" r="20" fill="#7a4e2f"/><text x="835" y="744" fill="white" font-size="14" font-weight="700">AM</text><text x="880" y="732" fill="#f8fafc" font-size="15" font-weight="700">Amazon</text><text x="880" y="754" fill="#889bb3" font-size="12">SDE III · GenAI</text><text x="836" y="804" fill="#8194ad" font-size="11">Coding round completed</text>

    <rect x="1160" y="420" width="378" height="516" rx="22" fill="#0d192b" stroke="#223653"/><circle cx="1190" cy="456" r="6" fill="#42d6bb"/><text x="1208" y="462" fill="#dbe6f2" font-size="15" font-weight="700">Offer / decision</text><text x="1497" y="462" fill="#8092aa" font-size="13">2</text>
    <rect x="1180" y="490" width="338" height="226" rx="18" fill="#14243b" stroke="#2a806f" filter="url(#s)"/><circle cx="1212" cy="525" r="20" fill="#176c61"/><text x="1201" y="531" fill="white" font-size="14" font-weight="700">FN</text><text x="1246" y="519" fill="#f8fafc" font-size="15" font-weight="700">FinTech Nova</text><text x="1246" y="541" fill="#889bb3" font-size="12">Lead Agentic Engineer</text><rect x="1202" y="572" width="91" height="25" rx="12" fill="#173a42"/><text x="1218" y="589" fill="#5de0c7" font-size="11">Offer received</text><text x="1202" y="626" fill="#dbe6f2" font-size="12">₹48L fixed + ₹8L variable</text><text x="1202" y="651" fill="#889bb3" font-size="11">Joining bonus · ₹3L</text><line x1="1202" y1="671" x2="1490" y2="671" stroke="#263b59"/><text x="1202" y="697" fill="#ffbf70" font-size="11">Respond by Friday</text>
    <rect x="1180" y="734" width="338" height="132" rx="18" fill="#14243b" stroke="#2a4263"/><circle cx="1212" cy="770" r="20" fill="#4b3f80"/><text x="1201" y="776" fill="white" font-size="14" font-weight="700">DB</text><text x="1246" y="764" fill="#f8fafc" font-size="15" font-weight="700">Databricks</text><text x="1246" y="786" fill="#889bb3" font-size="12">Final decision pending</text><text x="1202" y="836" fill="#8194ad" font-size="11">Final round 3 days ago</text>
  </g>
  <rect x="1390" y="952" width="148" height="26" rx="13" fill="#17263d"/><text x="1406" y="969" fill="#8498b3" font-family="Inter,Arial" font-size="10" letter-spacing="1">CONCEPT PREVIEW</text>
</svg>
